<svg xmlns="http://www.w3.org/2000/svg" viewBox="0 0 24 24" fill="white">
  <path d="M16 4c0-1.11.89-2 2-2s2 .89 2 2-.89 2-2 2-2-.89-2-2z"/>
  <path d="M20.78 7.58C19.93 7.21 18.99 7 18 7s-1.93.21-2.78.58C14.93 7.79 14.63 8 14.63 8L12 10.5 9.37 8s-.3-.21-.59-.42C7.93 7.21 6.99 7 6 7s-1.93.21-2.78.58C2.48 7.9 2 8.62 2 9.5V22h8v-6h4v6h8V9.5c0-.88-.48-1.6-1.22-1.92z"/>
  <path d="M6 4c0-1.11.89-2 2-2s2 .89 2 2-.89 2-2 2-2-.89-2-2z"/>
  <circle cx="12" cy="6" r="2"/>
  <path d="M15 18v2h2v-2h-2z"/>
  <path d="M7 18v2h2v-2H7z"/>
</svg>